ISO-10303-21;
HEADER;
/* Generated by software containing ST-Developer
 * from STEP Tools, Inc. (www.steptools.com) 
 */

FILE_DESCRIPTION(
/* description */ (''),
/* implementation_level */ '2;1');

FILE_NAME(
/* name */ 'coilhousing.step',
/* time_stamp */ '2026-04-10T09:28:46-04:00',
/* author */ (''),
/* organization */ (''),
/* preprocessor_version */ 'ST-DEVELOPER v20.1',
/* originating_system */ 'Autodesk Translation Framework v14.10.0.0',
/* authorisation */ '');

FILE_SCHEMA (('AUTOMOTIVE_DESIGN { 1 0 10303 214 3 1 1 }'));
ENDSEC;

DATA;
#10=MECHANICAL_DESIGN_GEOMETRIC_PRESENTATION_REPRESENTATION('',(#13),#700);
#11=SHAPE_REPRESENTATION_RELATIONSHIP('SRR','None',#707,#12);
#12=ADVANCED_BREP_SHAPE_REPRESENTATION('',(#14),#699);
#13=STYLED_ITEM('',(#716),#14);
#14=MANIFOLD_SOLID_BREP('Body1',#416);
#15=FACE_BOUND('',#64,.T.);
#16=FACE_BOUND('',#66,.T.);
#17=FACE_BOUND('',#68,.T.);
#18=FACE_BOUND('',#78,.T.);
#19=PLANE('',#433);
#20=PLANE('',#434);
#21=PLANE('',#445);
#22=PLANE('',#448);
#23=PLANE('',#449);
#24=PLANE('',#451);
#25=PLANE('',#453);
#26=PLANE('',#455);
#27=PLANE('',#457);
#28=PLANE('',#458);
#29=PLANE('',#459);
#30=PLANE('',#460);
#31=PLANE('',#463);
#32=PLANE('',#464);
#33=FACE_OUTER_BOUND('',#54,.T.);
#34=FACE_OUTER_BOUND('',#55,.T.);
#35=FACE_OUTER_BOUND('',#56,.T.);
#36=FACE_OUTER_BOUND('',#57,.T.);
#37=FACE_OUTER_BOUND('',#58,.T.);
#38=FACE_OUTER_BOUND('',#59,.T.);
#39=FACE_OUTER_BOUND('',#60,.T.);
#40=FACE_OUTER_BOUND('',#61,.T.);
#41=FACE_OUTER_BOUND('',#62,.T.);
#42=FACE_OUTER_BOUND('',#63,.T.);
#43=FACE_OUTER_BOUND('',#65,.T.);
#44=FACE_OUTER_BOUND('',#67,.T.);
#45=FACE_OUTER_BOUND('',#69,.T.);
#46=FACE_OUTER_BOUND('',#70,.T.);
#47=FACE_OUTER_BOUND('',#71,.T.);
#48=FACE_OUTER_BOUND('',#72,.T.);
#49=FACE_OUTER_BOUND('',#73,.T.);
#50=FACE_OUTER_BOUND('',#74,.T.);
#51=FACE_OUTER_BOUND('',#75,.T.);
#52=FACE_OUTER_BOUND('',#76,.T.);
#53=FACE_OUTER_BOUND('',#77,.T.);
#54=EDGE_LOOP('',(#274,#275,#276,#277));
#55=EDGE_LOOP('',(#278,#279,#280,#281));
#56=EDGE_LOOP('',(#282,#283,#284,#285,#286,#287,#288,#289));
#57=EDGE_LOOP('',(#290,#291,#292,#293));
#58=EDGE_LOOP('',(#294,#295,#296,#297));
#59=EDGE_LOOP('',(#298,#299,#300,#301));
#60=EDGE_LOOP('',(#302,#303,#304,#305,#306,#307,#308,#309));
#61=EDGE_LOOP('',(#310,#311,#312,#313));
#62=EDGE_LOOP('',(#314,#315,#316,#317,#318,#319,#320,#321));
#63=EDGE_LOOP('',(#322,#323,#324,#325,#326,#327,#328,#329));
#64=EDGE_LOOP('',(#330));
#65=EDGE_LOOP('',(#331,#332,#333,#334));
#66=EDGE_LOOP('',(#335));
#67=EDGE_LOOP('',(#336,#337,#338,#339,#340));
#68=EDGE_LOOP('',(#341));
#69=EDGE_LOOP('',(#342,#343,#344,#345));
#70=EDGE_LOOP('',(#346,#347,#348,#349));
#71=EDGE_LOOP('',(#350,#351,#352,#353));
#72=EDGE_LOOP('',(#354,#355,#356,#357,#358,#359,#360,#361));
#73=EDGE_LOOP('',(#362,#363,#364,#365));
#74=EDGE_LOOP('',(#366,#367,#368,#369));
#75=EDGE_LOOP('',(#370,#371,#372,#373));
#76=EDGE_LOOP('',(#374,#375,#376,#377));
#77=EDGE_LOOP('',(#378,#379,#380,#381,#382,#383,#384,#385,#386));
#78=EDGE_LOOP('',(#387));
#79=LINE('',#586,#122);
#80=LINE('',#589,#123);
#81=LINE('',#592,#124);
#82=LINE('',#594,#125);
#83=LINE('',#595,#126);
#84=LINE('',#598,#127);
#85=LINE('',#600,#128);
#86=LINE('',#604,#129);
#87=LINE('',#606,#130);
#88=LINE('',#610,#131);
#89=LINE('',#616,#132);
#90=LINE('',#622,#133);
#91=LINE('',#626,#134);
#92=LINE('',#628,#135);
#93=LINE('',#630,#136);
#94=LINE('',#632,#137);
#95=LINE('',#634,#138);
#96=LINE('',#635,#139);
#97=LINE('',#638,#140);
#98=LINE('',#640,#141);
#99=LINE('',#644,#142);
#100=LINE('',#645,#143);
#101=LINE('',#646,#144);
#102=LINE('',#649,#145);
#103=LINE('',#652,#146);
#104=LINE('',#655,#147);
#105=LINE('',#658,#148);
#106=LINE('',#662,#149);
#107=LINE('',#664,#150);
#108=LINE('',#668,#151);
#109=LINE('',#669,#152);
#110=LINE('',#671,#153);
#111=LINE('',#673,#154);
#112=LINE('',#677,#155);
#113=LINE('',#678,#156);
#114=LINE('',#680,#157);
#115=LINE('',#681,#158);
#116=LINE('',#684,#159);
#117=LINE('',#685,#160);
#118=LINE('',#688,#161);
#119=LINE('',#689,#162);
#120=LINE('',#693,#163);
#121=LINE('',#695,#164);
#122=VECTOR('',#471,10.);
#123=VECTOR('',#474,10.);
#124=VECTOR('',#477,10.);
#125=VECTOR('',#478,10.);
#126=VECTOR('',#479,10.);
#127=VECTOR('',#482,10.);
#128=VECTOR('',#483,10.);
#129=VECTOR('',#486,10.);
#130=VECTOR('',#487,10.);
#131=VECTOR('',#492,10.);
#132=VECTOR('',#499,1.);
#133=VECTOR('',#506,1.);
#134=VECTOR('',#511,10.);
#135=VECTOR('',#512,10.);
#136=VECTOR('',#513,10.);
#137=VECTOR('',#514,10.);
#138=VECTOR('',#515,10.);
#139=VECTOR('',#516,10.);
#140=VECTOR('',#519,10.);
#141=VECTOR('',#520,10.);
#142=VECTOR('',#525,10.);
#143=VECTOR('',#526,10.);
#144=VECTOR('',#527,10.);
#145=VECTOR('',#530,10.);
#146=VECTOR('',#533,10.);
#147=VECTOR('',#536,10.);
#148=VECTOR('',#539,10.);
#149=VECTOR('',#542,10.);
#150=VECTOR('',#543,10.);
#151=VECTOR('',#546,10.);
#152=VECTOR('',#547,10.);
#153=VECTOR('',#550,10.);
#154=VECTOR('',#553,10.);
#155=VECTOR('',#558,10.);
#156=VECTOR('',#559,10.);
#157=VECTOR('',#560,10.);
#158=VECTOR('',#561,10.);
#159=VECTOR('',#564,10.);
#160=VECTOR('',#565,10.);
#161=VECTOR('',#568,10.);
#162=VECTOR('',#569,10.);
#163=VECTOR('',#574,10.);
#164=VECTOR('',#577,10.);
#165=CIRCLE('',#431,1.1);
#166=CIRCLE('',#432,1.1);
#167=CIRCLE('',#435,1.9812);
#168=CIRCLE('',#436,1.1);
#169=CIRCLE('',#438,1.1);
#170=CIRCLE('',#440,1.);
#171=CIRCLE('',#441,1.);
#172=CIRCLE('',#443,1.);
#173=CIRCLE('',#444,1.);
#174=CIRCLE('',#447,1.9812);
#175=CIRCLE('',#450,1.5);
#176=CIRCLE('',#452,1.5);
#177=CIRCLE('',#454,1.5);
#178=CIRCLE('',#462,1.5);
#179=VERTEX_POINT('',#582);
#180=VERTEX_POINT('',#583);
#181=VERTEX_POINT('',#585);
#182=VERTEX_POINT('',#587);
#183=VERTEX_POINT('',#591);
#184=VERTEX_POINT('',#593);
#185=VERTEX_POINT('',#597);
#186=VERTEX_POINT('',#599);
#187=VERTEX_POINT('',#601);
#188=VERTEX_POINT('',#603);
#189=VERTEX_POINT('',#605);
#190=VERTEX_POINT('',#609);
#191=VERTEX_POINT('',#613);
#192=VERTEX_POINT('',#615);
#193=VERTEX_POINT('',#619);
#194=VERTEX_POINT('',#621);
#195=VERTEX_POINT('',#625);
#196=VERTEX_POINT('',#627);
#197=VERTEX_POINT('',#629);
#198=VERTEX_POINT('',#631);
#199=VERTEX_POINT('',#633);
#200=VERTEX_POINT('',#637);
#201=VERTEX_POINT('',#639);
#202=VERTEX_POINT('',#643);
#203=VERTEX_POINT('',#648);
#204=VERTEX_POINT('',#650);
#205=VERTEX_POINT('',#654);
#206=VERTEX_POINT('',#656);
#207=VERTEX_POINT('',#660);
#208=VERTEX_POINT('',#661);
#209=VERTEX_POINT('',#663);
#210=VERTEX_POINT('',#665);
#211=VERTEX_POINT('',#667);
#212=VERTEX_POINT('',#676);
#213=VERTEX_POINT('',#679);
#214=VERTEX_POINT('',#683);
#215=VERTEX_POINT('',#687);
#216=VERTEX_POINT('',#691);
#217=EDGE_CURVE('',#179,#180,#165,.T.);
#218=EDGE_CURVE('',#180,#181,#79,.T.);
#219=EDGE_CURVE('',#181,#182,#166,.T.);
#220=EDGE_CURVE('',#182,#179,#80,.T.);
#221=EDGE_CURVE('',#183,#182,#81,.T.);
#222=EDGE_CURVE('',#184,#183,#82,.T.);
#223=EDGE_CURVE('',#179,#184,#83,.T.);
#224=EDGE_CURVE('',#185,#181,#84,.T.);
#225=EDGE_CURVE('',#185,#186,#85,.T.);
#226=EDGE_CURVE('',#186,#187,#167,.T.);
#227=EDGE_CURVE('',#187,#188,#86,.T.);
#228=EDGE_CURVE('',#188,#189,#87,.T.);
#229=EDGE_CURVE('',#183,#189,#168,.T.);
#230=EDGE_CURVE('',#189,#190,#88,.T.);
#231=EDGE_CURVE('',#190,#184,#169,.T.);
#232=EDGE_CURVE('',#191,#191,#170,.T.);
#233=EDGE_CURVE('',#191,#192,#89,.T.);
#234=EDGE_CURVE('',#192,#192,#171,.T.);
#235=EDGE_CURVE('',#193,#193,#172,.T.);
#236=EDGE_CURVE('',#193,#194,#90,.T.);
#237=EDGE_CURVE('',#194,#194,#173,.T.);
#238=EDGE_CURVE('',#195,#180,#91,.T.);
#239=EDGE_CURVE('',#195,#196,#92,.T.);
#240=EDGE_CURVE('',#196,#197,#93,.T.);
#241=EDGE_CURVE('',#198,#197,#94,.T.);
#242=EDGE_CURVE('',#199,#198,#95,.T.);
#243=EDGE_CURVE('',#199,#185,#96,.T.);
#244=EDGE_CURVE('',#187,#200,#97,.T.);
#245=EDGE_CURVE('',#201,#186,#98,.T.);
#246=EDGE_CURVE('',#200,#201,#174,.T.);
#247=EDGE_CURVE('',#202,#190,#99,.T.);
#248=EDGE_CURVE('',#202,#200,#100,.T.);
#249=EDGE_CURVE('',#201,#195,#101,.T.);
#250=EDGE_CURVE('',#199,#203,#102,.T.);
#251=EDGE_CURVE('',#204,#203,#175,.T.);
#252=EDGE_CURVE('',#204,#196,#103,.T.);
#253=EDGE_CURVE('',#197,#205,#104,.T.);
#254=EDGE_CURVE('',#205,#206,#176,.T.);
#255=EDGE_CURVE('',#206,#198,#105,.T.);
#256=EDGE_CURVE('',#207,#208,#106,.T.);
#257=EDGE_CURVE('',#208,#209,#107,.T.);
#258=EDGE_CURVE('',#209,#210,#177,.T.);
#259=EDGE_CURVE('',#210,#211,#108,.T.);
#260=EDGE_CURVE('',#211,#207,#109,.T.);
#261=EDGE_CURVE('',#203,#206,#110,.T.);
#262=EDGE_CURVE('',#204,#205,#111,.T.);
#263=EDGE_CURVE('',#188,#212,#112,.T.);
#264=EDGE_CURVE('',#212,#208,#113,.T.);
#265=EDGE_CURVE('',#213,#207,#114,.T.);
#266=EDGE_CURVE('',#213,#202,#115,.T.);
#267=EDGE_CURVE('',#213,#214,#116,.T.);
#268=EDGE_CURVE('',#214,#211,#117,.T.);
#269=EDGE_CURVE('',#214,#215,#118,.T.);
#270=EDGE_CURVE('',#215,#210,#119,.T.);
#271=EDGE_CURVE('',#216,#215,#178,.T.);
#272=EDGE_CURVE('',#216,#209,#120,.T.);
#273=EDGE_CURVE('',#216,#212,#121,.T.);
#274=ORIENTED_EDGE('',*,*,#217,.T.);
#275=ORIENTED_EDGE('',*,*,#218,.T.);
#276=ORIENTED_EDGE('',*,*,#219,.T.);
#277=ORIENTED_EDGE('',*,*,#220,.T.);
#278=ORIENTED_EDGE('',*,*,#220,.F.);
#279=ORIENTED_EDGE('',*,*,#221,.F.);
#280=ORIENTED_EDGE('',*,*,#222,.F.);
#281=ORIENTED_EDGE('',*,*,#223,.F.);
#282=ORIENTED_EDGE('',*,*,#219,.F.);
#283=ORIENTED_EDGE('',*,*,#224,.F.);
#284=ORIENTED_EDGE('',*,*,#225,.T.);
#285=ORIENTED_EDGE('',*,*,#226,.T.);
#286=ORIENTED_EDGE('',*,*,#227,.T.);
#287=ORIENTED_EDGE('',*,*,#228,.T.);
#288=ORIENTED_EDGE('',*,*,#229,.F.);
#289=ORIENTED_EDGE('',*,*,#221,.T.);
#290=ORIENTED_EDGE('',*,*,#229,.T.);
#291=ORIENTED_EDGE('',*,*,#230,.T.);
#292=ORIENTED_EDGE('',*,*,#231,.T.);
#293=ORIENTED_EDGE('',*,*,#222,.T.);
#294=ORIENTED_EDGE('',*,*,#232,.F.);
#295=ORIENTED_EDGE('',*,*,#233,.T.);
#296=ORIENTED_EDGE('',*,*,#234,.F.);
#297=ORIENTED_EDGE('',*,*,#233,.F.);
#298=ORIENTED_EDGE('',*,*,#235,.F.);
#299=ORIENTED_EDGE('',*,*,#236,.T.);
#300=ORIENTED_EDGE('',*,*,#237,.F.);
#301=ORIENTED_EDGE('',*,*,#236,.F.);
#302=ORIENTED_EDGE('',*,*,#218,.F.);
#303=ORIENTED_EDGE('',*,*,#238,.F.);
#304=ORIENTED_EDGE('',*,*,#239,.T.);
#305=ORIENTED_EDGE('',*,*,#240,.T.);
#306=ORIENTED_EDGE('',*,*,#241,.F.);
#307=ORIENTED_EDGE('',*,*,#242,.F.);
#308=ORIENTED_EDGE('',*,*,#243,.T.);
#309=ORIENTED_EDGE('',*,*,#224,.T.);
#310=ORIENTED_EDGE('',*,*,#244,.F.);
#311=ORIENTED_EDGE('',*,*,#226,.F.);
#312=ORIENTED_EDGE('',*,*,#245,.F.);
#313=ORIENTED_EDGE('',*,*,#246,.F.);
#314=ORIENTED_EDGE('',*,*,#217,.F.);
#315=ORIENTED_EDGE('',*,*,#223,.T.);
#316=ORIENTED_EDGE('',*,*,#231,.F.);
#317=ORIENTED_EDGE('',*,*,#247,.F.);
#318=ORIENTED_EDGE('',*,*,#248,.T.);
#319=ORIENTED_EDGE('',*,*,#246,.T.);
#320=ORIENTED_EDGE('',*,*,#249,.T.);
#321=ORIENTED_EDGE('',*,*,#238,.T.);
#322=ORIENTED_EDGE('',*,*,#245,.T.);
#323=ORIENTED_EDGE('',*,*,#225,.F.);
#324=ORIENTED_EDGE('',*,*,#243,.F.);
#325=ORIENTED_EDGE('',*,*,#250,.T.);
#326=ORIENTED_EDGE('',*,*,#251,.F.);
#327=ORIENTED_EDGE('',*,*,#252,.T.);
#328=ORIENTED_EDGE('',*,*,#239,.F.);
#329=ORIENTED_EDGE('',*,*,#249,.F.);
#330=ORIENTED_EDGE('',*,*,#234,.T.);
#331=ORIENTED_EDGE('',*,*,#241,.T.);
#332=ORIENTED_EDGE('',*,*,#253,.T.);
#333=ORIENTED_EDGE('',*,*,#254,.T.);
#334=ORIENTED_EDGE('',*,*,#255,.T.);
#335=ORIENTED_EDGE('',*,*,#232,.T.);
#336=ORIENTED_EDGE('',*,*,#256,.T.);
#337=ORIENTED_EDGE('',*,*,#257,.T.);
#338=ORIENTED_EDGE('',*,*,#258,.T.);
#339=ORIENTED_EDGE('',*,*,#259,.T.);
#340=ORIENTED_EDGE('',*,*,#260,.T.);
#341=ORIENTED_EDGE('',*,*,#235,.T.);
#342=ORIENTED_EDGE('',*,*,#250,.F.);
#343=ORIENTED_EDGE('',*,*,#242,.T.);
#344=ORIENTED_EDGE('',*,*,#255,.F.);
#345=ORIENTED_EDGE('',*,*,#261,.F.);
#346=ORIENTED_EDGE('',*,*,#251,.T.);
#347=ORIENTED_EDGE('',*,*,#261,.T.);
#348=ORIENTED_EDGE('',*,*,#254,.F.);
#349=ORIENTED_EDGE('',*,*,#262,.F.);
#350=ORIENTED_EDGE('',*,*,#252,.F.);
#351=ORIENTED_EDGE('',*,*,#262,.T.);
#352=ORIENTED_EDGE('',*,*,#253,.F.);
#353=ORIENTED_EDGE('',*,*,#240,.F.);
#354=ORIENTED_EDGE('',*,*,#230,.F.);
#355=ORIENTED_EDGE('',*,*,#228,.F.);
#356=ORIENTED_EDGE('',*,*,#263,.T.);
#357=ORIENTED_EDGE('',*,*,#264,.T.);
#358=ORIENTED_EDGE('',*,*,#256,.F.);
#359=ORIENTED_EDGE('',*,*,#265,.F.);
#360=ORIENTED_EDGE('',*,*,#266,.T.);
#361=ORIENTED_EDGE('',*,*,#247,.T.);
#362=ORIENTED_EDGE('',*,*,#267,.F.);
#363=ORIENTED_EDGE('',*,*,#265,.T.);
#364=ORIENTED_EDGE('',*,*,#260,.F.);
#365=ORIENTED_EDGE('',*,*,#268,.F.);
#366=ORIENTED_EDGE('',*,*,#269,.F.);
#367=ORIENTED_EDGE('',*,*,#268,.T.);
#368=ORIENTED_EDGE('',*,*,#259,.F.);
#369=ORIENTED_EDGE('',*,*,#270,.F.);
#370=ORIENTED_EDGE('',*,*,#271,.T.);
#371=ORIENTED_EDGE('',*,*,#270,.T.);
#372=ORIENTED_EDGE('',*,*,#258,.F.);
#373=ORIENTED_EDGE('',*,*,#272,.F.);
#374=ORIENTED_EDGE('',*,*,#273,.F.);
#375=ORIENTED_EDGE('',*,*,#272,.T.);
#376=ORIENTED_EDGE('',*,*,#257,.F.);
#377=ORIENTED_EDGE('',*,*,#264,.F.);
#378=ORIENTED_EDGE('',*,*,#244,.T.);
#379=ORIENTED_EDGE('',*,*,#248,.F.);
#380=ORIENTED_EDGE('',*,*,#266,.F.);
#381=ORIENTED_EDGE('',*,*,#267,.T.);
#382=ORIENTED_EDGE('',*,*,#269,.T.);
#383=ORIENTED_EDGE('',*,*,#271,.F.);
#384=ORIENTED_EDGE('',*,*,#273,.T.);
#385=ORIENTED_EDGE('',*,*,#263,.F.);
#386=ORIENTED_EDGE('',*,*,#227,.F.);
#387=ORIENTED_EDGE('',*,*,#237,.T.);
#388=CYLINDRICAL_SURFACE('',#430,1.1);
#389=CYLINDRICAL_SURFACE('',#437,1.1);
#390=CYLINDRICAL_SURFACE('',#439,1.);
#391=CYLINDRICAL_SURFACE('',#442,1.);
#392=CYLINDRICAL_SURFACE('',#446,1.9812);
#393=CYLINDRICAL_SURFACE('',#456,1.5);
#394=CYLINDRICAL_SURFACE('',#461,1.5);
#395=ADVANCED_FACE('',(#33),#388,.T.);
#396=ADVANCED_FACE('',(#34),#19,.F.);
#397=ADVANCED_FACE('',(#35),#20,.T.);
#398=ADVANCED_FACE('',(#36),#389,.T.);
#399=ADVANCED_FACE('',(#37),#390,.F.);
#400=ADVANCED_FACE('',(#38),#391,.F.);
#401=ADVANCED_FACE('',(#39),#21,.T.);
#402=ADVANCED_FACE('',(#40),#392,.F.);
#403=ADVANCED_FACE('',(#41),#22,.T.);
#404=ADVANCED_FACE('',(#42,#15),#23,.F.);
#405=ADVANCED_FACE('',(#43,#16),#24,.T.);
#406=ADVANCED_FACE('',(#44,#17),#25,.T.);
#407=ADVANCED_FACE('',(#45),#26,.T.);
#408=ADVANCED_FACE('',(#46),#393,.T.);
#409=ADVANCED_FACE('',(#47),#27,.T.);
#410=ADVANCED_FACE('',(#48),#28,.T.);
#411=ADVANCED_FACE('',(#49),#29,.T.);
#412=ADVANCED_FACE('',(#50),#30,.T.);
#413=ADVANCED_FACE('',(#51),#394,.T.);
#414=ADVANCED_FACE('',(#52),#31,.T.);
#415=ADVANCED_FACE('',(#53,#18),#32,.F.);
#416=CLOSED_SHELL('',(#395,#396,#397,#398,#399,#400,#401,#402,#403,#404,
#405,#406,#407,#408,#409,#410,#411,#412,#413,#414,#415));
#417=DERIVED_UNIT_ELEMENT(#419,1.);
#418=DERIVED_UNIT_ELEMENT(#702,-3.);
#419=(
MASS_UNIT()
NAMED_UNIT(*)
SI_UNIT(.KILO.,.GRAM.)
);
#420=DERIVED_UNIT((#417,#418));
#421=MEASURE_REPRESENTATION_ITEM('density measure',
POSITIVE_RATIO_MEASURE(7850.),#420);
#422=PROPERTY_DEFINITION_REPRESENTATION(#427,#424);
#423=PROPERTY_DEFINITION_REPRESENTATION(#428,#425);
#424=REPRESENTATION('material name',(#426),#699);
#425=REPRESENTATION('density',(#421),#699);
#426=DESCRIPTIVE_REPRESENTATION_ITEM('Steel','Steel');
#427=PROPERTY_DEFINITION('material property','material name',#709);
#428=PROPERTY_DEFINITION('material property','density of part',#709);
#429=AXIS2_PLACEMENT_3D('',#580,#465,#466);
#430=AXIS2_PLACEMENT_3D('',#581,#467,#468);
#431=AXIS2_PLACEMENT_3D('',#584,#469,#470);
#432=AXIS2_PLACEMENT_3D('',#588,#472,#473);
#433=AXIS2_PLACEMENT_3D('',#590,#475,#476);
#434=AXIS2_PLACEMENT_3D('',#596,#480,#481);
#435=AXIS2_PLACEMENT_3D('',#602,#484,#485);
#436=AXIS2_PLACEMENT_3D('',#607,#488,#489);
#437=AXIS2_PLACEMENT_3D('',#608,#490,#491);
#438=AXIS2_PLACEMENT_3D('',#611,#493,#494);
#439=AXIS2_PLACEMENT_3D('',#612,#495,#496);
#440=AXIS2_PLACEMENT_3D('',#614,#497,#498);
#441=AXIS2_PLACEMENT_3D('',#617,#500,#501);
#442=AXIS2_PLACEMENT_3D('',#618,#502,#503);
#443=AXIS2_PLACEMENT_3D('',#620,#504,#505);
#444=AXIS2_PLACEMENT_3D('',#623,#507,#508);
#445=AXIS2_PLACEMENT_3D('',#624,#509,#510);
#446=AXIS2_PLACEMENT_3D('',#636,#517,#518);
#447=AXIS2_PLACEMENT_3D('',#641,#521,#522);
#448=AXIS2_PLACEMENT_3D('',#642,#523,#524);
#449=AXIS2_PLACEMENT_3D('',#647,#528,#529);
#450=AXIS2_PLACEMENT_3D('',#651,#531,#532);
#451=AXIS2_PLACEMENT_3D('',#653,#534,#535);
#452=AXIS2_PLACEMENT_3D('',#657,#537,#538);
#453=AXIS2_PLACEMENT_3D('',#659,#540,#541);
#454=AXIS2_PLACEMENT_3D('',#666,#544,#545);
#455=AXIS2_PLACEMENT_3D('',#670,#548,#549);
#456=AXIS2_PLACEMENT_3D('',#672,#551,#552);
#457=AXIS2_PLACEMENT_3D('',#674,#554,#555);
#458=AXIS2_PLACEMENT_3D('',#675,#556,#557);
#459=AXIS2_PLACEMENT_3D('',#682,#562,#563);
#460=AXIS2_PLACEMENT_3D('',#686,#566,#567);
#461=AXIS2_PLACEMENT_3D('',#690,#570,#571);
#462=AXIS2_PLACEMENT_3D('',#692,#572,#573);
#463=AXIS2_PLACEMENT_3D('',#694,#575,#576);
#464=AXIS2_PLACEMENT_3D('',#696,#578,#579);
#465=DIRECTION('axis',(0.,0.,1.));
#466=DIRECTION('refdir',(1.,0.,0.));
#467=DIRECTION('center_axis',(0.,1.,0.));
#468=DIRECTION('ref_axis',(-0.707106781186547,0.,0.707106781186547));
#469=DIRECTION('center_axis',(0.,-1.,0.));
#470=DIRECTION('ref_axis',(-0.707106781186547,0.,0.707106781186547));
#471=DIRECTION('',(0.,-1.,0.));
#472=DIRECTION('center_axis',(0.,1.,0.));
#473=DIRECTION('ref_axis',(-0.707106781186547,0.,0.707106781186547));
#474=DIRECTION('',(0.,1.,0.));
#475=DIRECTION('center_axis',(0.,0.,-1.));
#476=DIRECTION('ref_axis',(-1.,0.,0.));
#477=DIRECTION('',(-1.,0.,0.));
#478=DIRECTION('',(0.,-1.,0.));
#479=DIRECTION('',(1.,0.,0.));
#480=DIRECTION('center_axis',(0.,-1.,0.));
#481=DIRECTION('ref_axis',(1.,0.,0.));
#482=DIRECTION('',(0.,0.,1.));
#483=DIRECTION('',(1.,0.,0.));
#484=DIRECTION('center_axis',(0.,1.,0.));
#485=DIRECTION('ref_axis',(1.,0.,0.));
#486=DIRECTION('',(1.,0.,0.));
#487=DIRECTION('',(0.,0.,1.));
#488=DIRECTION('center_axis',(0.,1.,0.));
#489=DIRECTION('ref_axis',(0.707106781186548,0.,0.707106781186547));
#490=DIRECTION('center_axis',(0.,-1.,0.));
#491=DIRECTION('ref_axis',(0.707106781186548,0.,0.707106781186547));
#492=DIRECTION('',(0.,1.,0.));
#493=DIRECTION('center_axis',(0.,-1.,0.));
#494=DIRECTION('ref_axis',(0.707106781186548,0.,0.707106781186547));
#495=DIRECTION('center_axis',(0.,0.,-1.));
#496=DIRECTION('ref_axis',(-1.,0.,0.));
#497=DIRECTION('center_axis',(0.,0.,-1.));
#498=DIRECTION('ref_axis',(-1.,0.,0.));
#499=DIRECTION('',(0.,0.,-1.));
#500=DIRECTION('center_axis',(0.,0.,1.));
#501=DIRECTION('ref_axis',(-1.,0.,0.));
#502=DIRECTION('center_axis',(0.,0.,-1.));
#503=DIRECTION('ref_axis',(-1.,0.,0.));
#504=DIRECTION('center_axis',(0.,0.,-1.));
#505=DIRECTION('ref_axis',(-1.,0.,0.));
#506=DIRECTION('',(0.,0.,-1.));
#507=DIRECTION('center_axis',(0.,0.,1.));
#508=DIRECTION('ref_axis',(-1.,0.,0.));
#509=DIRECTION('center_axis',(-1.,0.,0.));
#510=DIRECTION('ref_axis',(0.,-1.,0.));
#511=DIRECTION('',(0.,0.,1.));
#512=DIRECTION('',(0.,-1.,0.));
#513=DIRECTION('',(0.,0.,1.));
#514=DIRECTION('',(0.,1.,0.));
#515=DIRECTION('',(0.,0.,1.));
#516=DIRECTION('',(0.,-1.,0.));
#517=DIRECTION('center_axis',(0.,1.,0.));
#518=DIRECTION('ref_axis',(6.12323399573677E-17,0.,1.));
#519=DIRECTION('',(0.,1.,0.));
#520=DIRECTION('',(0.,-1.,0.));
#521=DIRECTION('center_axis',(0.,-1.,0.));
#522=DIRECTION('ref_axis',(1.,0.,0.));
#523=DIRECTION('center_axis',(0.,1.,0.));
#524=DIRECTION('ref_axis',(-1.,0.,0.));
#525=DIRECTION('',(0.,0.,1.));
#526=DIRECTION('',(-1.,0.,0.));
#527=DIRECTION('',(-1.,0.,0.));
#528=DIRECTION('center_axis',(0.,0.,1.));
#529=DIRECTION('ref_axis',(1.,0.,0.));
#530=DIRECTION('',(-1.,0.,0.));
#531=DIRECTION('center_axis',(0.,0.,1.));
#532=DIRECTION('ref_axis',(1.,0.,0.));
#533=DIRECTION('',(1.,0.,0.));
#534=DIRECTION('center_axis',(0.,0.,1.));
#535=DIRECTION('ref_axis',(1.,0.,0.));
#536=DIRECTION('',(-1.,0.,0.));
#537=DIRECTION('center_axis',(0.,0.,1.));
#538=DIRECTION('ref_axis',(1.,0.,0.));
#539=DIRECTION('',(1.,0.,0.));
#540=DIRECTION('center_axis',(0.,0.,1.));
#541=DIRECTION('ref_axis',(1.,0.,0.));
#542=DIRECTION('',(0.,-1.,0.));
#543=DIRECTION('',(1.,0.,0.));
#544=DIRECTION('center_axis',(0.,0.,1.));
#545=DIRECTION('ref_axis',(1.,0.,0.));
#546=DIRECTION('',(0.,1.,0.));
#547=DIRECTION('',(-1.,0.,0.));
#548=DIRECTION('center_axis',(0.,-1.,0.));
#549=DIRECTION('ref_axis',(1.,0.,0.));
#550=DIRECTION('',(0.,0.,1.));
#551=DIRECTION('center_axis',(0.,0.,1.));
#552=DIRECTION('ref_axis',(-0.999999992965549,0.000118612399683469,0.));
#553=DIRECTION('',(0.,0.,1.));
#554=DIRECTION('center_axis',(0.,1.,0.));
#555=DIRECTION('ref_axis',(-1.,0.,0.));
#556=DIRECTION('center_axis',(1.,0.,0.));
#557=DIRECTION('ref_axis',(0.,1.,0.));
#558=DIRECTION('',(0.,1.,0.));
#559=DIRECTION('',(0.,0.,1.));
#560=DIRECTION('',(0.,0.,1.));
#561=DIRECTION('',(0.,1.,0.));
#562=DIRECTION('center_axis',(0.,1.,0.));
#563=DIRECTION('ref_axis',(-1.,0.,0.));
#564=DIRECTION('',(1.,0.,0.));
#565=DIRECTION('',(0.,0.,1.));
#566=DIRECTION('center_axis',(1.,0.,0.));
#567=DIRECTION('ref_axis',(0.,1.,0.));
#568=DIRECTION('',(0.,-1.,0.));
#569=DIRECTION('',(0.,0.,1.));
#570=DIRECTION('center_axis',(0.,0.,1.));
#571=DIRECTION('ref_axis',(1.,0.,0.));
#572=DIRECTION('center_axis',(0.,0.,1.));
#573=DIRECTION('ref_axis',(1.,0.,0.));
#574=DIRECTION('',(0.,0.,1.));
#575=DIRECTION('center_axis',(0.,-1.,0.));
#576=DIRECTION('ref_axis',(1.,0.,0.));
#577=DIRECTION('',(-1.,0.,0.));
#578=DIRECTION('center_axis',(0.,0.,1.));
#579=DIRECTION('ref_axis',(1.,0.,0.));
#580=CARTESIAN_POINT('',(0.,0.,0.));
#581=CARTESIAN_POINT('Origin',(1.1,3.81,3.488));
#582=CARTESIAN_POINT('',(1.1,5.08,4.588));
#583=CARTESIAN_POINT('',(0.,5.08,3.488));
#584=CARTESIAN_POINT('Origin',(1.1,5.08,3.488));
#585=CARTESIAN_POINT('',(0.,0.,3.488));
#586=CARTESIAN_POINT('',(0.,3.81,3.488));
#587=CARTESIAN_POINT('',(1.1,0.,4.588));
#588=CARTESIAN_POINT('Origin',(1.1,0.,3.488));
#589=CARTESIAN_POINT('',(1.1,3.81,4.588));
#590=CARTESIAN_POINT('Origin',(2.794,2.54,4.588));
#591=CARTESIAN_POINT('',(4.488,0.,4.588));
#592=CARTESIAN_POINT('',(1.397,0.,4.588));
#593=CARTESIAN_POINT('',(4.488,5.08,4.588));
#594=CARTESIAN_POINT('',(4.488,3.27969195612896,4.588));
#595=CARTESIAN_POINT('',(4.191,5.08,4.588));
#596=CARTESIAN_POINT('Origin',(0.,0.,0.));
#597=CARTESIAN_POINT('',(0.,0.,0.));
#598=CARTESIAN_POINT('',(0.,0.,0.));
#599=CARTESIAN_POINT('',(2.24982315374504,0.,0.));
#600=CARTESIAN_POINT('',(0.,0.,0.));
#601=CARTESIAN_POINT('',(3.33817684625496,0.,0.));
#602=CARTESIAN_POINT('Origin',(2.794,0.,1.905));
#603=CARTESIAN_POINT('',(5.588,0.,0.));
#604=CARTESIAN_POINT('',(0.,0.,0.));
#605=CARTESIAN_POINT('',(5.588,0.,3.488));
#606=CARTESIAN_POINT('',(5.588,0.,0.));
#607=CARTESIAN_POINT('Origin',(4.488,0.,3.488));
#608=CARTESIAN_POINT('Origin',(4.488,3.27969195612896,3.488));
#609=CARTESIAN_POINT('',(5.588,5.08,3.488));
#610=CARTESIAN_POINT('',(5.588,3.27969195612896,3.488));
#611=CARTESIAN_POINT('Origin',(4.488,5.08,3.488));
#612=CARTESIAN_POINT('Origin',(-1.50000002235174,2.5000000372529,3.048));
#613=CARTESIAN_POINT('',(-0.500000022351742,2.5000000372529,3.048));
#614=CARTESIAN_POINT('Origin',(-1.50000002235174,2.5000000372529,3.048));
#615=CARTESIAN_POINT('',(-0.500000022351742,2.5000000372529,0.));
#616=CARTESIAN_POINT('',(-0.500000022351742,2.5000000372529,3.048));
#617=CARTESIAN_POINT('Origin',(-1.50000002235174,2.5000000372529,0.));
#618=CARTESIAN_POINT('Origin',(7.088,2.5000000372529,3.048));
#619=CARTESIAN_POINT('',(8.088,2.5000000372529,3.048));
#620=CARTESIAN_POINT('Origin',(7.088,2.5000000372529,3.048));
#621=CARTESIAN_POINT('',(8.088,2.5000000372529,0.));
#622=CARTESIAN_POINT('',(8.088,2.5000000372529,3.048));
#623=CARTESIAN_POINT('Origin',(7.088,2.5000000372529,0.));
#624=CARTESIAN_POINT('Origin',(0.,5.08,0.));
#625=CARTESIAN_POINT('',(0.,5.08,0.));
#626=CARTESIAN_POINT('',(0.,5.08,0.));
#627=CARTESIAN_POINT('',(3.35276126306461E-8,3.99999991059303,0.));
#628=CARTESIAN_POINT('',(0.,5.08,0.));
#629=CARTESIAN_POINT('',(3.35276126306461E-8,3.99999991059303,3.048));
#630=CARTESIAN_POINT('',(3.35276126306461E-8,3.99999991059303,0.));
#631=CARTESIAN_POINT('',(3.35276126306461E-8,0.999999910593033,3.048));
#632=CARTESIAN_POINT('',(0.,3.81,3.048));
#633=CARTESIAN_POINT('',(3.35276126306461E-8,0.999999910593033,0.));
#634=CARTESIAN_POINT('',(3.35276126306461E-8,0.999999910593033,0.));
#635=CARTESIAN_POINT('',(0.,5.08,0.));
#636=CARTESIAN_POINT('Origin',(2.794,0.,1.905));
#637=CARTESIAN_POINT('',(3.33817684625496,5.08,0.));
#638=CARTESIAN_POINT('',(3.33817684625496,0.,0.));
#639=CARTESIAN_POINT('',(2.24982315374504,5.08,0.));
#640=CARTESIAN_POINT('',(2.24982315374504,0.,0.));
#641=CARTESIAN_POINT('Origin',(2.794,5.08,1.905));
#642=CARTESIAN_POINT('Origin',(5.588,5.08,0.));
#643=CARTESIAN_POINT('',(5.588,5.08,0.));
#644=CARTESIAN_POINT('',(5.588,5.08,0.));
#645=CARTESIAN_POINT('',(5.588,5.08,0.));
#646=CARTESIAN_POINT('',(5.588,5.08,0.));
#647=CARTESIAN_POINT('Origin',(2.79399998882413,2.54,0.));
#648=CARTESIAN_POINT('',(-1.49999996647239,0.999999910593033,0.));
#649=CARTESIAN_POINT('',(3.35276126306461E-8,0.999999910593033,0.));
#650=CARTESIAN_POINT('',(-1.49964412929588,3.99999991059303,0.));
#651=CARTESIAN_POINT('Origin',(-1.50000002235174,2.5000000372529,0.));
#652=CARTESIAN_POINT('',(-1.49999996647239,3.99999991059303,0.));
#653=CARTESIAN_POINT('Origin',(2.79399998882413,2.54,3.048));
#654=CARTESIAN_POINT('',(-1.49964412929588,3.99999991059303,3.048));
#655=CARTESIAN_POINT('',(-1.49999996647239,3.99999991059303,3.048));
#656=CARTESIAN_POINT('',(-1.49999996647239,0.999999910593033,3.048));
#657=CARTESIAN_POINT('Origin',(-1.50000002235174,2.5000000372529,3.048));
#658=CARTESIAN_POINT('',(3.35276126306461E-8,0.999999910593033,3.048));
#659=CARTESIAN_POINT('Origin',(2.79399998882413,2.54,3.048));
#660=CARTESIAN_POINT('',(5.588,4.01938391225792,3.048));
#661=CARTESIAN_POINT('',(5.588,1.01938391225792,3.048));
#662=CARTESIAN_POINT('',(5.588,1.27,3.048));
#663=CARTESIAN_POINT('',(6.84763384097416,1.01938391225792,3.048));
#664=CARTESIAN_POINT('',(7.088,1.01938391225792,3.048));
#665=CARTESIAN_POINT('',(7.088,4.0000000372529,3.048));
#666=CARTESIAN_POINT('Origin',(7.088,2.5000000372529,3.048));
#667=CARTESIAN_POINT('',(7.088,4.01938391225792,3.048));
#668=CARTESIAN_POINT('',(7.088,4.01938391225792,3.048));
#669=CARTESIAN_POINT('',(5.588,4.01938391225792,3.048));
#670=CARTESIAN_POINT('Origin',(-1.49999996647239,0.999999910593033,0.));
#671=CARTESIAN_POINT('',(-1.49999996647239,0.999999910593033,0.));
#672=CARTESIAN_POINT('Origin',(-1.50000002235174,2.5000000372529,0.));
#673=CARTESIAN_POINT('',(-1.49964412929588,3.99999991059303,0.));
#674=CARTESIAN_POINT('Origin',(3.35276126306461E-8,3.99999991059303,0.));
#675=CARTESIAN_POINT('Origin',(5.588,4.01938391225792,0.));
#676=CARTESIAN_POINT('',(5.588,1.01938391225792,0.));
#677=CARTESIAN_POINT('',(5.588,0.,0.));
#678=CARTESIAN_POINT('',(5.588,1.01938391225792,0.));
#679=CARTESIAN_POINT('',(5.588,4.01938391225792,0.));
#680=CARTESIAN_POINT('',(5.588,4.01938391225792,0.));
#681=CARTESIAN_POINT('',(5.588,0.,0.));
#682=CARTESIAN_POINT('Origin',(7.088,4.01938391225792,0.));
#683=CARTESIAN_POINT('',(7.088,4.01938391225792,0.));
#684=CARTESIAN_POINT('',(5.588,4.01938391225792,0.));
#685=CARTESIAN_POINT('',(7.088,4.01938391225792,0.));
#686=CARTESIAN_POINT('Origin',(7.088,4.0000000372529,0.));
#687=CARTESIAN_POINT('',(7.088,4.0000000372529,0.));
#688=CARTESIAN_POINT('',(7.088,4.01938391225792,0.));
#689=CARTESIAN_POINT('',(7.088,4.0000000372529,0.));
#690=CARTESIAN_POINT('Origin',(7.088,2.5000000372529,0.));
#691=CARTESIAN_POINT('',(6.84763384097416,1.01938391225792,0.));
#692=CARTESIAN_POINT('Origin',(7.088,2.5000000372529,0.));
#693=CARTESIAN_POINT('',(6.84763384097416,1.01938391225792,0.));
#694=CARTESIAN_POINT('Origin',(5.588,1.01938391225792,0.));
#695=CARTESIAN_POINT('',(7.088,1.01938391225792,0.));
#696=CARTESIAN_POINT('Origin',(2.79399998882413,2.54,0.));
#697=UNCERTAINTY_MEASURE_WITH_UNIT(LENGTH_MEASURE(0.01),#701,
'DISTANCE_ACCURACY_VALUE',
'Maximum model space distance between geometric entities at asserted c
onnectivities');
#698=UNCERTAINTY_MEASURE_WITH_UNIT(LENGTH_MEASURE(0.01),#701,
'DISTANCE_ACCURACY_VALUE',
'Maximum model space distance between geometric entities at asserted c
onnectivities');
#699=(
GEOMETRIC_REPRESENTATION_CONTEXT(3)
GLOBAL_UNCERTAINTY_ASSIGNED_CONTEXT((#697))
GLOBAL_UNIT_ASSIGNED_CONTEXT((#701,#703,#704))
REPRESENTATION_CONTEXT('','3D')
);
#700=(
GEOMETRIC_REPRESENTATION_CONTEXT(3)
GLOBAL_UNCERTAINTY_ASSIGNED_CONTEXT((#698))
GLOBAL_UNIT_ASSIGNED_CONTEXT((#701,#703,#704))
REPRESENTATION_CONTEXT('','3D')
);
#701=(
LENGTH_UNIT()
NAMED_UNIT(*)
SI_UNIT(.MILLI.,.METRE.)
);
#702=(
LENGTH_UNIT()
NAMED_UNIT(*)
SI_UNIT($,.METRE.)
);
#703=(
NAMED_UNIT(*)
PLANE_ANGLE_UNIT()
SI_UNIT($,.RADIAN.)
);
#704=(
NAMED_UNIT(*)
SI_UNIT($,.STERADIAN.)
SOLID_ANGLE_UNIT()
);
#705=SHAPE_DEFINITION_REPRESENTATION(#706,#707);
#706=PRODUCT_DEFINITION_SHAPE('',$,#709);
#707=SHAPE_REPRESENTATION('',(#429),#699);
#708=PRODUCT_DEFINITION_CONTEXT('part definition',#713,'design');
#709=PRODUCT_DEFINITION('coilhousing','coilhousing',#710,#708);
#710=PRODUCT_DEFINITION_FORMATION('',$,#715);
#711=PRODUCT_RELATED_PRODUCT_CATEGORY('coilhousing','coilhousing',(#715));
#712=APPLICATION_PROTOCOL_DEFINITION('international standard',
'automotive_design',2009,#713);
#713=APPLICATION_CONTEXT(
'Core Data for Automotive Mechanical Design Process');
#714=PRODUCT_CONTEXT('part definition',#713,'mechanical');
#715=PRODUCT('coilhousing','coilhousing',$,(#714));
#716=PRESENTATION_STYLE_ASSIGNMENT((#717));
#717=SURFACE_STYLE_USAGE(.BOTH.,#718);
#718=SURFACE_SIDE_STYLE('',(#719));
#719=SURFACE_STYLE_FILL_AREA(#720);
#720=FILL_AREA_STYLE('Steel - Satin',(#721));
#721=FILL_AREA_STYLE_COLOUR('Steel - Satin',#722);
#722=COLOUR_RGB('Steel - Satin',0.627450980392157,0.627450980392157,0.627450980392157);
ENDSEC;
END-ISO-10303-21;
